# xmcd
#
# Track frame offsets:
#	150
#	13427
#	27085
#	38750
#	61175
#	76840
#	90550
#	102587
#	117140
#	129505
#	141587
#	152315
#	169030
#	181522
#	196170
#	210150
#
# Disc length: 2967
#
# Revision: 5
# Processed by: cddbd v1.5.1PL0 Copyright (c) Steve Scherf et al.
# Submitted via: CDex 1.51
# Normalized: r4:DSETVAR1,TDELIM( - )
#
DISCID=c10b9510
DTITLE=Various Artist - Best Blues Album In The World...Ever (Disk 1)
DYEAR=2000
DGENRE=Blues
TTITLE0=Muddy Waters - Mannish Boy
TTITLE1=Koko Taylor - Wang Dang Doodle
TTITLE2=Little Walter - My Babe
TTITLE3=Willie Dixon - Spoonfull
TTITLE4=Sonny Boy Williamson II - Nine Below Zero
TTITLE5=Mississippi Fred McDowell - Kokomo Me Baby
TTITLE6=Robert Johnson - Cross Road Blues
TTITLE7=Brownie McGhee and Sonny Terry - Baby, Please Don't Go
TTITLE8=Son House - I Want To Go Home On The Morning Train
TTITLE9=Lightnin' Hopkins - Shotgun
TTITLE10=John Mayall and The Bluesbreakers - Parchman Farm
TTITLE11=John Hammond - I've Got Love If You Want It
TTITLE12=Elmore James - Dust My Broom
TTITLE13=Big Walter Horton - Little Boy Blue
TTITLE14=Lowell Fulsom - Tramp
TTITLE15=Big Joe Williams - Oh Baby
EXTD=YEAR: 2000
EXTT0=
EXTT1=
EXTT2=
EXTT3=
EXTT4=
EXTT5=
EXTT6=
EXTT7=
EXTT8=
EXTT9=
EXTT10=
EXTT11=
EXTT12=
EXTT13=
EXTT14=
EXTT15=
PLAYORDER=
